<svg xmlns="http://www.w3.org/2000/svg"  viewBox="0 0 16 16" width="30px" height="30px"><path fill="#f5ce85" d="M7.5 0.5A7 7 0 1 0 7.5 14.5A7 7 0 1 0 7.5 0.5Z"/><path fill="#967a44" d="M7.5,1C11.084,1,14,3.916,14,7.5S11.084,14,7.5,14S1,11.084,1,7.5S3.916,1,7.5,1 M7.5,0 C3.358,0,0,3.358,0,7.5S3.358,15,7.5,15S15,11.642,15,7.5S11.642,0,7.5,0L7.5,0z"/><path fill="#967a44" d="M4.253 7.075l.783.783C5.019 7.741 5 7.623 5 7.5 5 6.121 6.121 5 7.5 5c.34 0 .664.069.96.193l.737-.737C8.692 4.174 8.119 4 7.5 4 5.632 4 4.12 5.467 4.019 7.309L4.253 7.075zM10.747 7.924L9.964 7.141C9.981 7.259 10 7.377 10 7.5 10 8.878 8.879 10 7.5 10c-.34 0-.664-.069-.96-.193l-.737.737C6.308 10.826 6.881 11 7.5 11c1.868 0 3.38-1.467 3.481-3.309L10.747 7.924z"/><path fill="#967a44" d="M12.5 8L8.5 8 10.5 6zM2.5 7L6.5 7 4.5 9z"/></svg>