<svg xmlns="http://www.w3.org/2000/svg"  viewBox="0 0 30 30" width="30px" height="30px"><path fill="#f5ce85" d="M15,28.5C7.556,28.5,1.5,22.444,1.5,15S7.556,1.5,15,1.5S28.5,7.556,28.5,15S22.444,28.5,15,28.5z"/><path fill="#967a44" d="M15,2c7.168,0,13,5.832,13,13s-5.832,13-13,13S2,22.168,2,15S7.832,2,15,2 M15,1 C7.268,1,1,7.268,1,15s6.268,14,14,14s14-6.268,14-14S22.732,1,15,1L15,1z"/><path fill="#fff" d="M25.5 15L18.5 15 22 11.5zM4.5 15L11.5 15 8 18.5z"/><path fill="#fff" d="M15 9c1.654 0 3.15.677 4.236 1.764L20.65 9.35C19.203 7.902 17.209 7 15 7c-4.418 0-8 3.582-8 8 0 .339.028.672.069 1H9.09C9.035 15.674 9 15.341 9 15 9 11.692 11.692 9 15 9zM22.931 14H20.91c.055.326.09.659.09 1 0 3.308-2.692 6-6 6-1.654 0-3.15-.677-4.236-1.764L9.35 20.65C10.797 22.098 12.791 23 15 23c4.418 0 8-3.582 8-8C23 14.661 22.972 14.328 22.931 14z"/></svg>